<svg width="24" height="24" viewBox="0 0 24 24" fill="none" xmlns="http://www.w3.org/2000/svg">
<path d="M5.9375 7.1875C6.62786 7.1875 7.1875 6.62786 7.1875 5.9375C7.1875 5.24714 6.62786 4.6875 5.9375 4.6875C5.24714 4.6875 4.6875 5.24714 4.6875 5.9375C4.6875 6.62786 5.24714 7.1875 5.9375 7.1875Z" fill="black"/>
<path d="M12.3125 7.1875C13.0029 7.1875 13.5625 6.62786 13.5625 5.9375C13.5625 5.24714 13.0029 4.6875 12.3125 4.6875C11.6221 4.6875 11.0625 5.24714 11.0625 5.9375C11.0625 6.62786 11.6221 7.1875 12.3125 7.1875Z" fill="black"/>
<path d="M18.6875 7.1875C19.3779 7.1875 19.9375 6.62786 19.9375 5.9375C19.9375 5.24714 19.3779 4.6875 18.6875 4.6875C17.9971 4.6875 17.4375 5.24714 17.4375 5.9375C17.4375 6.62786 17.9971 7.1875 18.6875 7.1875Z" fill="black"/>
<path d="M5.9375 13.5625C6.62786 13.5625 7.1875 13.0029 7.1875 12.3125C7.1875 11.6221 6.62786 11.0625 5.9375 11.0625C5.24714 11.0625 4.6875 11.6221 4.6875 12.3125C4.6875 13.0029 5.24714 13.5625 5.9375 13.5625Z" fill="black"/>
<path d="M12.3125 13.5625C13.0029 13.5625 13.5625 13.0029 13.5625 12.3125C13.5625 11.6221 13.0029 11.0625 12.3125 11.0625C11.6221 11.0625 11.0625 11.6221 11.0625 12.3125C11.0625 13.0029 11.6221 13.5625 12.3125 13.5625Z" fill="black"/>
<path d="M18.6875 13.5625C19.3779 13.5625 19.9375 13.0029 19.9375 12.3125C19.9375 11.6221 19.3779 11.0625 18.6875 11.0625C17.9971 11.0625 17.4375 11.6221 17.4375 12.3125C17.4375 13.0029 17.9971 13.5625 18.6875 13.5625Z" fill="black"/>
<path d="M5.9375 19.9375C6.62786 19.9375 7.1875 19.3779 7.1875 18.6875C7.1875 17.9971 6.62786 17.4375 5.9375 17.4375C5.24714 17.4375 4.6875 17.9971 4.6875 18.6875C4.6875 19.3779 5.24714 19.9375 5.9375 19.9375Z" fill="black"/>
<path d="M12.3125 19.9375C13.0029 19.9375 13.5625 19.3779 13.5625 18.6875C13.5625 17.9971 13.0029 17.4375 12.3125 17.4375C11.6221 17.4375 11.0625 17.9971 11.0625 18.6875C11.0625 19.3779 11.6221 19.9375 12.3125 19.9375Z" fill="black"/>
<path d="M18.6875 19.9375C19.3779 19.9375 19.9375 19.3779 19.9375 18.6875C19.9375 17.9971 19.3779 17.4375 18.6875 17.4375C17.9971 17.4375 17.4375 17.9971 17.4375 18.6875C17.4375 19.3779 17.9971 19.9375 18.6875 19.9375Z" fill="black"/>
</svg>
