<svg width="16" height="16" viewBox="0 0 16 16" fill="none" xmlns="http://www.w3.org/2000/svg">
<path d="M8 11C9.65685 11 11 9.65685 11 8C11 6.34315 9.65685 5 8 5C6.34315 5 5 6.34315 5 8C5 9.65685 6.34315 11 8 11Z" stroke="#AFAFAF" stroke-width="1.5" stroke-linecap="round" stroke-linejoin="round"/>
<path d="M11.4787 4.06791C11.6389 4.20968 11.7902 4.36104 11.932 4.52117L13.6397 4.76501C13.9166 5.24723 14.1301 5.76318 14.2749 6.30007L13.2402 7.67955C13.2402 7.67955 13.2532 8.10702 13.2403 8.32047L14.2753 9.70039C14.1302 10.2372 13.9163 10.753 13.6391 11.235L11.932 11.4788C11.932 11.4788 11.6389 11.7903 11.4788 11.9321L11.235 13.6397C10.7528 13.9166 10.2368 14.1301 9.69994 14.2749L8.32054 13.2403C8.10707 13.2533 7.89301 13.2533 7.67954 13.2403L6.29962 14.2754C5.76283 14.1302 5.24703 13.9164 4.765 13.6391L4.5212 11.9322C4.36108 11.7904 4.20971 11.639 4.06794 11.4789L2.36029 11.2351C2.08337 10.7528 1.86986 10.2369 1.72506 9.7L2.75971 8.32052C2.75971 8.32052 2.7467 7.89305 2.75967 7.6796L1.72461 6.29968C1.86977 5.76289 2.08363 5.24709 2.36088 4.76506L4.06785 4.52126C4.20962 4.36114 4.36098 4.20977 4.5211 4.068L4.76495 2.36035C5.24717 2.08343 5.76312 1.86992 6.3 1.72512L7.67941 2.75974C7.89288 2.74676 8.10694 2.74676 8.32041 2.75973L9.70033 1.72467C10.2371 1.86983 10.7529 2.08369 11.235 2.36094L11.4787 4.06791Z" stroke="#AFAFAF" stroke-width="1.5" stroke-linecap="round" stroke-linejoin="round"/>
</svg>
