<svg width="81" height="48" viewBox="0 0 81 48" fill="none" xmlns="http://www.w3.org/2000/svg">
<path d="M8.06 29.78C10.38 29.78 12.22 28.56 12.92 26.36L14.44 26.72C13.62 29.52 11.14 31.26 8.06 31.26C4.16 31.26 1.1 28.2 1.1 24.3C1.1 20.4 4.16 17.34 8.06 17.34C11.14 17.34 13.62 19.08 14.44 21.78L12.92 22.22C12.24 20.06 10.38 18.82 8.06 18.82C5.06 18.82 2.7 21.2 2.7 24.3C2.7 27.38 5.06 29.78 8.06 29.78ZM21.0869 20.9C23.5469 20.9 25.1669 22.22 25.1669 24.6V31H23.6869V29.5C22.9269 30.52 21.6869 31.26 19.9869 31.26C17.8269 31.26 16.4069 30.02 16.4069 28.24C16.4069 26.44 17.7869 25.16 20.3669 25.16H23.6869V24.7C23.6869 23.16 22.6869 22.24 21.1669 22.24C19.6669 22.24 18.6269 22.98 18.4069 24.22L16.9469 23.9C17.2669 22.12 18.9269 20.9 21.0869 20.9ZM20.2069 30C22.1269 30 23.6869 28.66 23.6869 26.88V26.36H20.3469C18.7269 26.36 17.8669 27.14 17.8669 28.22C17.8669 29.26 18.7869 30 20.2069 30ZM40.1653 20.9C42.2453 20.9 43.8453 22.38 43.8453 24.62V31H42.3253V24.88C42.3253 23.32 41.2653 22.3 39.7853 22.3C37.9653 22.3 36.7653 23.64 36.7653 25.96V31H35.2453V24.88C35.2453 23.32 34.1853 22.3 32.7253 22.3C30.9053 22.3 29.7253 23.64 29.7253 25.96V31H28.2053V21.14H29.7253V22.64C30.4253 21.56 31.5453 20.9 33.0853 20.9C34.6053 20.9 35.8653 21.64 36.4453 22.9C37.2053 21.68 38.4853 20.9 40.1653 20.9ZM52.5711 20.9C55.1911 20.9 57.4911 22.96 57.4911 26.08C57.4911 29.2 55.1911 31.26 52.5711 31.26C50.8911 31.26 49.5111 30.56 48.6511 29.36V35.8H47.1311V21.14H48.6511V22.8C49.5111 21.6 50.8911 20.9 52.5711 20.9ZM52.3311 29.9C54.3711 29.9 56.0111 28.42 56.0111 26.08C56.0111 23.72 54.3711 22.24 52.3311 22.24C50.4711 22.24 48.6511 23.72 48.6511 26.08C48.6511 28.42 50.4711 29.9 52.3311 29.9ZM69.0994 21.14V30.98H67.5594V29.38C66.7594 30.56 65.4794 31.24 63.8394 31.24C61.4594 31.24 59.8794 29.54 59.8794 27.04V21.14H61.4194V26.76C61.4194 28.6 62.4994 29.82 64.1394 29.82C66.1994 29.82 67.5594 28.44 67.5594 25.88V21.14H69.0994ZM71.6036 28.34L73.1236 28C73.2636 29.3 74.4636 30 76.0236 30C77.4436 30 78.3836 29.34 78.3836 28.32C78.3836 27.5 77.7636 27.12 76.7636 26.9L74.5036 26.4C72.8636 26.06 71.9436 25.24 71.9436 23.88C71.9436 22.1 73.4236 20.9 75.6836 20.9C77.9036 20.9 79.3436 22.04 79.7036 23.64L78.2436 23.96C78.0436 22.88 77.1036 22.14 75.6436 22.14C74.2436 22.14 73.4636 22.82 73.4636 23.76C73.4636 24.54 74.0036 24.9 74.9636 25.12L77.3436 25.64C78.7836 25.96 79.8836 26.72 79.8836 28.22C79.8836 30.16 78.2636 31.26 75.9036 31.26C73.6436 31.26 71.8436 30.26 71.6036 28.34Z" fill="white"/>
</svg>
