<svg width="48" height="48" viewBox="0 0 48 48" fill="none" xmlns="http://www.w3.org/2000/svg">
<path d="M22.888 11.2363C23.4976 10.8781 24.2473 10.8782 24.8569 11.2283L38.0144 18.7832C39.3285 19.5378 39.3285 21.4336 38.0144 22.1882L24.8611 29.7407C24.2464 30.0937 23.489 30.0878 22.8798 29.7254L9.9199 22.0162C9.34043 21.6715 9.00862 21.0943 9.00017 20.4828C8.99168 19.8687 9.31057 19.2817 9.89452 18.9296C12.8188 17.1662 19.0235 13.5074 22.888 11.2363ZM24.2052 12.3633C23.9998 12.2453 23.7518 12.2468 23.551 12.3648C19.6852 14.6367 13.4873 18.2915 10.5705 20.0504C10.3707 20.1709 10.3072 20.3321 10.309 20.4647C10.3109 20.5999 10.382 20.7682 10.5891 20.8914L23.549 28.6006C23.7521 28.7214 24.0045 28.7234 24.2094 28.6057L37.3625 21.0532C37.8006 20.8017 37.8006 20.1697 37.3625 19.9182L24.2052 12.3633Z" fill="#19F086"/>
<path d="M24.8005 20.2051C24.8005 19.7405 24.4238 19.3637 23.9591 19.3637C23.4944 19.3637 23.1177 19.7405 23.1177 20.2051C23.1177 20.6698 23.4944 21.0465 23.9591 21.0465C24.4238 21.0465 24.8005 20.6698 24.8005 20.2051ZM26.1094 20.2051C26.1094 21.3927 25.1467 22.3554 23.9591 22.3554C22.7716 22.3554 21.8089 21.3927 21.8089 20.2051C21.8089 19.0176 22.7716 18.0549 23.9591 18.0549C25.1467 18.0549 26.1094 19.0176 26.1094 20.2051Z" fill="#15ECE6"/>
<path d="M32.2796 31.05C32.2796 30.5853 31.9029 30.2086 31.4382 30.2086C30.9735 30.2086 30.5968 30.5853 30.5968 31.05C30.5968 31.5147 30.9735 31.8914 31.4382 31.8914C31.9029 31.8914 32.2796 31.5147 32.2796 31.05ZM33.5884 31.05C33.5884 32.2375 32.6258 33.2002 31.4382 33.2002C30.2507 33.2002 29.288 32.2375 29.288 31.05C29.288 29.8624 30.2507 28.8997 31.4382 28.8997C32.6258 28.8997 33.5884 29.8624 33.5884 31.05Z" fill="#15ECE6"/>
<path d="M30.7838 28.9178V25.7574C30.7837 25.6606 30.7338 25.5705 30.6516 25.5193L25.1091 22.0696C24.8022 21.8786 24.7083 21.4749 24.8993 21.1681C25.0903 20.8612 25.4939 20.7673 25.8007 20.9583L31.3432 24.4082C31.8093 24.6984 32.0926 25.2085 32.0926 25.7574V28.9178C32.0926 29.2792 31.7996 29.5722 31.4382 29.5722C31.0768 29.5722 30.7838 29.2792 30.7838 28.9178Z" fill="#15ECE6"/>
<path d="M31.949 31.936C32.2858 31.805 32.665 31.9718 32.796 32.3087L34.0059 35.4195C34.2204 35.9711 33.8134 36.5659 33.2216 36.5659H29.6548C29.063 36.5659 28.6561 35.9711 28.8706 35.4195L30.0805 32.3087C30.2115 31.9718 30.5907 31.805 30.9275 31.936C31.2644 32.067 31.4312 32.4462 31.3002 32.783L30.3381 35.257H32.5384L31.5763 32.783C31.4453 32.4462 31.6121 32.067 31.949 31.936Z" fill="#15ECE6"/>
<path d="M13.2079 23.8514C13.2079 23.49 13.5009 23.1968 13.8623 23.1968C14.2237 23.1968 14.5167 23.49 14.5167 23.8514V31.7695C15.6449 33.2438 18.6812 35.7245 23.3982 35.7245C24.3638 35.7245 25.282 35.5978 26.1422 35.3894C26.4935 35.3043 26.8472 35.52 26.9323 35.8713C27.0174 36.2225 26.8017 36.5762 26.4504 36.6614C25.5007 36.8915 24.4787 37.0333 23.3982 37.0333C18.0637 37.0333 14.6203 34.1538 13.3653 32.4149C13.2625 32.2725 13.2079 32.1045 13.2079 31.9279V23.8514ZM34.1494 28.2454V23.7203C34.1494 23.3589 34.4424 23.0659 34.8038 23.0659C35.1652 23.0659 35.4582 23.3589 35.4582 23.7203V28.2454C35.4582 28.6067 35.1652 28.8998 34.8038 28.8998C34.4424 28.8998 34.1494 28.6067 34.1494 28.2454Z" fill="#19F086"/>
</svg>
