<svg width="20" height="20" viewBox="0 0 20 20" fill="none" xmlns="http://www.w3.org/2000/svg">
<path d="M2.5 5V11.25" stroke="#727272" stroke-width="1.5" stroke-linecap="round" stroke-linejoin="round"/>
<path d="M4.23688 16.8749C4.86146 15.9155 5.7157 15.1272 6.72208 14.5815C7.72847 14.0358 8.85517 13.75 9.99999 13.75C11.1448 13.75 12.2715 14.0358 13.2779 14.5815C14.2843 15.1272 15.1385 15.9155 15.7631 16.8749" stroke="#727272" stroke-width="1.5" stroke-linecap="round" stroke-linejoin="round"/>
<path d="M17.5 5L10 7.5L2.5 5L10 2.5L17.5 5Z" stroke="#727272" stroke-width="1.5" stroke-linecap="round" stroke-linejoin="round"/>
<path d="M13.2294 6.42346C13.8019 7.04983 14.1799 7.82916 14.3173 8.66651C14.4547 9.50387 14.3456 10.3631 14.0033 11.1396C13.6611 11.9161 13.1004 12.5762 12.3896 13.0397C11.6788 13.5032 10.8486 13.75 10 13.75C9.15145 13.75 8.3212 13.5032 7.6104 13.0397C6.8996 12.5762 6.33893 11.9161 5.99667 11.1396C5.65441 10.3631 5.54534 9.50387 5.68274 8.66651C5.82015 7.82916 6.1981 7.04983 6.77056 6.42346" stroke="#727272" stroke-width="1.5" stroke-linecap="round" stroke-linejoin="round"/>
</svg>
